Patient4_TMGait_0pt4_03_left_27_GRF.mot
version=1
nRows=26
nColumns=19
inDegrees=no
endheader
time	F1x	F1y	F1z	M1x	M1y	M1z	F2x	F2y	F2z	M2x	M2y	M2z	EC1x	EC1y	EC1z	EC2x	EC2y	EC2z
35.56	-2.7066	-8.1844	-1.5961	1.5798	0.029213	-4.4673	-12.9049	716.7345	-62.6862	293.0084	73.9999	781.0143	-0.0592	0.0182	-0.0073	-0.0462	0.0165	0.9585
35.5731	-1.738	-5.1875	-1.0269	0.95219	-0.079807	-2.6562	-14.8025	718.7968	-59.6498	293.8604	71.179	780.4478	-0.0592	0.0182	-0.0073	-0.0462	0.0165	0.9585
35.5863	-0.96063	-2.6124	-0.55183	0.40817	-0.16519	-1.042	-16.0287	722.9669	-56.9543	295.5695	68.4512	781.834	-0.0592	0.0182	-0.0073	-0.0462	0.0165	0.9585
35.5994	-0.40851	-0.60353	-0.19116	-0.018646	-0.22765	0.26955	-16.4786	729.4197	-54.802	298.2001	66.0012	785.438	-0.0592	0.0182	-0.0073	-0.0462	0.0165	0.9585
35.6126	-0.043448	0.83629	0.056715	-0.32674	-0.26465	1.2401	-16.1979	737.918	-53.2681	301.6469	63.9262	791.0571	-0.0592	0.0182	-0.0073	-0.0462	0.0165	0.9585
35.6257	0.15257	1.7776	0.21391	-0.5284	-0.29155	1.9002	-15.295	747.8843	-52.3061	305.6636	62.2191	798.1171	-0.0592	0.0182	-0.0073	-0.0462	0.0165	0.9585
35.6389	0.22723	2.3031	0.30186	-0.63751	-0.31261	2.2678	-13.9105	758.4703	-51.8136	309.8954	60.8253	805.7507	-0.0592	0.0182	-0.0073	-0.0462	0.0165	0.9585
35.652	0.20773	2.495	0.35272	-0.66688	-0.34111	2.3758	-12.1911	768.6722	-51.6612	313.9276	59.6603	812.9296	-0.0592	0.0182	-0.0073	-0.0462	0.0165	0.9585
35.6651	0.12359	2.3995	0.38181	-0.62236	-0.37869	2.2286	-10.2387	777.4769	-51.7359	317.3458	58.6427	818.6201	-0.0592	0.0182	-0.0073	-0.0462	0.0165	0.9585
35.6783	-0.0091273	2.0128	0.41049	-0.49927	-0.44094	1.7896	-8.1418	784.0222	-51.9374	319.8024	57.6982	821.9457	-0.0592	0.0182	-0.0073	-0.0462	0.0165	0.9585
35.6914	-0.18204	1.3251	0.44498	-0.29193	-0.53092	1.0354	-5.9536	787.7172	-52.1805	321.0696	56.7566	822.2999	-0.0592	0.0182	-0.0073	-0.0462	0.0165	0.9585
35.7046	-0.36628	0.29852	0.49608	0.015322	-0.64609	-0.097938	-3.6995	788.3333	-52.3961	321.0683	55.7613	819.458	-0.0592	0.0182	-0.0073	-0.0462	0.0165	0.9585
35.7177	-0.54195	-1.0794	0.55368	0.43406	-0.76647	-1.6307	-1.3824	785.9749	-52.5481	319.8554	54.6807	813.5371	-0.0592	0.0182	-0.0073	-0.0462	0.0165	0.9585
35.7309	-0.65588	-2.7607	0.60592	0.95309	-0.86024	-3.5362	1.0271	781.0288	-52.6444	317.6029	53.5147	804.932	-0.0592	0.0182	-0.0073	-0.0462	0.0165	0.9585
35.744	-0.64272	-4.6067	0.62083	1.5296	-0.87118	-5.6686	3.5715	774.1194	-52.7223	314.5753	52.2868	794.2901	-0.0592	0.0182	-0.0073	-0.0462	0.0165	0.9585
35.7571	-0.41657	-6.3222	0.55009	2.0676	-0.71757	-7.6803	6.2975	766.0107	-52.8401	311.0893	51.0383	782.4148	-0.0592	0.0182	-0.0073	-0.0462	0.0165	0.9585
35.7703	0.13367	-7.3843	0.339	2.3985	-0.29778	-8.9561	9.211	757.5112	-53.048	307.4728	49.815	770.1632	-0.0592	0.0182	-0.0073	-0.0462	0.0165	0.9585
35.7834	1.1276	-6.9966	-0.090972	2.2651	0.51785	-8.5458	12.2877	749.3651	-53.3937	304.0194	48.6731	758.3258	-0.0592	0.0182	-0.0073	-0.0462	0.0165	0.9585
35.7966	2.6766	-4.0525	-0.80708	1.3115	1.8458	-5.1379	15.4478	742.1438	-53.9013	300.946	47.6675	747.5393	-0.0592	0.0182	-0.0073	-0.0462	0.0165	0.9585
35.8097	4.8314	2.8793	-1.875	-0.91972	3.7773	2.9644	18.5412	736.0847	-54.5803	298.3302	46.8657	738.1283	-0.0592	0.0182	-0.0073	-0.0462	0.0165	0.9585
35.8229	7.5369	15.4002	-3.3065	-4.9399	6.3103	17.66	21.3706	730.969	-55.3877	296.0676	46.3029	729.9727	-0.0592	0.0182	-0.0073	-0.0462	0.0165	0.9585
35.836	10.549	35.0319	-5.0469	-11.2331	9.2979	40.7635	23.7207	726.0748	-56.2261	293.8542	45.9716	722.4611	-0.0592	0.0182	-0.0073	-0.0462	0.0165	0.9585
35.8491	13.3236	62.7538	-6.898	-20.1042	12.3296	73.4491	25.404	720.1692	-56.9156	291.1943	45.7737	714.4529	-0.0592	0.0182	-0.0073	-0.0462	0.0165	0.9585
35.8623	14.9336	98.2666	-8.4738	-31.4424	14.647	115.3762	26.281	711.7176	-57.2335	287.4821	45.5466	704.4894	-0.0592	0.0182	-0.0073	-0.0462	0.0165	0.9585
35.8754	14.0749	139.107	-9.1391	-44.4361	15.0874	163.6633	26.3167	699.1913	-56.938	282.1233	45.0712	691.0688	-0.0592	0.0182	-0.0073	-0.0462	0.0165	0.9585
35.8886	10.0205	180.4044	-8.0494	-57.4867	12.4319	212.5902	25.5618	681.419	-55.8462	274.6743	44.1565	672.9909	-0.0592	0.0182	-0.0073	-0.0462	0.0165	0.9585
